<?xml version="1.0" encoding="utf-8"?>
<!-- Generator: Adobe Illustrator 21.1.0, SVG Export Plug-In . SVG Version: 6.00 Build 0)  -->
<svg version="1.1" id="Laag_1" xmlns="http://www.w3.org/2000/svg" xmlns:xlink="http://www.w3.org/1999/xlink" x="0px" y="0px"
	 viewBox="0 0 350 472" style="enable-background:new 0 0 350 472;" xml:space="preserve">
<style type="text/css">
	.st0{fill:#070706;}
</style>
<g id="_x23_070706fe">
	<path class="st0" d="M315.4,12.6c6.5-1.5,12.2,4.9,14.5,10.4c3.7,6.7,2.7,14.6,3.1,22c-0.2,128.4,0,256.7-0.1,385
		c0.5,8.3-1.6,16.7-6.8,23.2c-3,3.4-7.9,5.9-12.3,3.9c-32.8-12.7-65.4-26-98-39c-6.4-2.5-12.6-6-19.7-5.7
		c-47,1.2-94.1,0.3-141.2,0.6c-14,1.8-27.8-6.7-33.9-19.1c-5.1-8.7-4.9-19.2-5.1-28.9c0.2-88.3-0.2-176.7,0.2-265
		C15.6,84.8,24.2,69.6,38,63c9.5-4.1,20-2.7,30-3.1c41.8,0.5,83.6-0.5,125.4,0.6c2,0,4-0.5,5.9-1.2
		C238.1,43.9,276.6,27.8,315.4,12.6 M47.4,80.6C38,83.4,35.3,95.3,36,104c0.2,90-0.3,180,0.2,270c-0.8,9.4,5.9,19.3,15.8,19.9
		c45,0.2,89.9,0.6,134.9-0.2c12.6,0.5,17.3-14.5,16.1-24.6c0-88.4,0-176.7,0-265.1c0.6-8.5-1.9-19.8-10.7-23.2
		c-18.4-1.9-36.9-0.4-55.3-0.8C107.2,80.5,77.2,79,47.4,80.6 M259.4,236.5c-12.1,0.9-14.8,20.1-3.1,24.1c12.6,2.7,26,1.7,38.8,0.5
		c11.3-2.4,11.8-20.9,0.8-24.1C283.9,235,271.5,235.7,259.4,236.5z"/>
</g>
</svg>
