<?xml version="1.0" encoding="utf-8"?>
<!-- Generator: Adobe Illustrator 21.1.0, SVG Export Plug-In . SVG Version: 6.00 Build 0)  -->
<svg version="1.1" id="Laag_1" xmlns="http://www.w3.org/2000/svg" xmlns:xlink="http://www.w3.org/1999/xlink" x="0px" y="0px"
	 viewBox="0 0 719 1925" style="enable-background:new 0 0 719 1925;" xml:space="preserve">
<style type="text/css">
	.st0{fill:#070606;}
	.st1{fill:#F1F1F0;}
</style>
<g id="_x23_070606fe">
	<path class="st0" d="M74.5,9.4c4-2.4,9-3.3,13.5-2.1c87.6,16.8,175.2,33.6,262.8,50.3c11.6,2.1,18.2,14.5,18.5,25.5
		c-2.1,239-4.1,478-6.3,716.9c-2.2,249-4.3,498-6.5,747c0.1,26.3-0.6,52.6-0.5,78.9c0.1,11.7-0.2,23.3-0.2,35
		c17.4,7.5,35.1,14.4,52.7,21.5c41.5,16.9,83.3,33.1,125.4,48.6c53.6,20,107.6,39.3,161.5,58.5c5.7,2.3,9.4,7.9,10.4,13.8
		c7,28.6,2.2,58.5-5.2,86.5c-0.8,2.8-1.2,6.1-3.6,8c-5.5,4.5-10.9,9.2-16.2,13.9c-4.2,3.6-10.1,5.4-15.4,3.8
		c-21.7-8.4-43.4-16.6-65.1-25c-82.4-32.5-164.1-66.5-245.8-100.5c-0.1,8.9-0.2,17.9-0.3,26.8c-0.2,2.5,0.1,5.4-1.9,7.3
		c-2.9,3.1-5.8,6.9-10.2,7.7c-5.5,0.7-10.3-2.6-15.1-4.6c-6.1,3.7-11.9,7.8-18,11.5c-7.5,4.4-17,6-25.1,2.6
		c-74.7-33.7-149.3-67.4-224-101.1c-5.6-2.4-10.1-6.9-12.8-12.3c-4.3-8.3-4.3-17.9-4.3-27c0.1-18.6-0.7-37.3-0.5-55.9
		c-15.6-13.3-26.5-31.9-30.1-52.1c-1.8-10.6-1.6-22,3.2-31.8c4.5-10.5,15.6-15.2,24.4-21.3c-1.7-107.2-3.9-214.5-5.8-321.8
		c-3.5-189-6.9-378-10.5-567c-3.3-181.7-6.6-363.3-9.9-545c-0.5-12.6,0.2-25.5,4.3-37.6C22.2,54,30.9,40.1,44,32
		c6.5-3.9,14.1-5.6,21.4-7.6C66.2,18.5,68.9,12.2,74.5,9.4 M75.7,11.7c-4.5,2.2-6.5,7.2-7.6,11.8c5.6-0.9,11-4.1,16.8-3.4
		c86.3,16.7,172.6,33.4,259,50.1c6.9,1.7,10.8,9.1,10.7,15.8c-2.3,306.1-4.6,612.2-7,918.3c-1,108.6-1.1,217.2-1.4,325.8
		c-0.3,108.8-0.5,217.6-0.8,326.3c0.8,0.3,2.4,1,3.2,1.3c4.4-516.2,8.7-1032.3,13-1548.5c-0.4-1.6,1-2.3,2.4-2.4
		c0.5,8.1,0,16.2,0,24.3c-4.3,508.7-8.5,1017.4-12.8,1526c-0.1,1.4,0.5,2.3,1.9,2.8c0.5-53.6,0.7-107.2,1.2-160.9
		c4.1-471.1,8.1-942.2,12.3-1413.4c-1.2,0.2-2.4,0.6-3.6,0.4c-1.1-4-0.7-8.4-2.8-12.2c-2.4-5.8-7.2-11.1-13.5-12.5
		c-86.8-16.7-173.6-33.3-260.5-50C82.8,10.8,78.9,9.5,75.7,11.7 M78.6,23.5c-10,3.1-20.4,4.9-30.1,9.1c-8.9,4.2-15.8,11.8-20.9,20
		C18.9,67.1,15.4,84.2,15.9,101c8.7,476.7,17.4,953.3,26.1,1430c0.1,2.4-0.2,5,0.7,7.3c0.2-22.4-0.8-44.9-1-67.4
		c-3.3-186.3-6.7-372.6-10-559c-4.6-263.3-10-526.7-13.4-790c-0.1-4.3,0.2-9.1,3.1-12.6c2.7-3.3,7.4-4.1,11.4-3.3
		c75.8,15.9,151.7,31.5,227.5,47.5c3.7,2.1,6.8,5.3,10,8.1c1.6,3.3,2,7.1,3.5,10.5c0.3-13.8-0.5-27.8,2.7-41.3
		c4.3-18.9,13.5-38,30.2-48.8c9.6-5.3,20.7-7,31.1-10.2C256.2,56.1,174.5,40.1,92.8,24.4C88.1,23.6,83.3,21.6,78.6,23.5 M353.9,61.1
		c1.8,2.2,4,4,5.9,6.1c1.5,2.2,2.6,4.8,3.8,7.2c1.2,2.8,1,5.9,2,8.7c2-0.3,0.7-2.7,0.8-3.9C365.1,71.9,360.9,64.4,353.9,61.1
		 M341.5,73.5c-10.6,3.4-21.8,5.2-31.9,10.1c-11.5,6.7-19.5,18.2-24.7,30.3c-5.6,12.9-8.1,27.1-8.1,41.1
		c-0.5,256.7-0.8,513.4-1.3,770c-0.5,233.7-0.4,467.4-0.7,701.1c4.4,2,8.8,3.9,13.2,5.9c0.3-235,0.4-470,1.2-705
		c0.8-257,1.5-514,2.3-771c-0.3-14.5,2.7-29.1,9.6-41.9c5.2-9.3,12.8-18.3,23.3-21.7c9.2-2.7,18.4-5.1,27.6-8
		c-0.7-2.8-1.4-5.8-3.4-8.1C346.9,74.3,344.3,72.1,341.5,73.5 M322.2,96.2c-12.7,6.3-20.2,19.6-24.4,32.7c-4.6,13.5-3.5,28-3.7,42.1
		c-0.6,207.4-1.1,414.7-2,622.1c-0.3,169.7-1.3,339.4-1.1,509.1c-0.1,110.4-0.4,220.8-0.4,331.1c17.3,7.5,34.8,14.7,52.1,22.2
		c0.3-31.8,0.2-63.6,0.3-95.3c0-54.3,0.4-108.7,0.4-163.1c0-55,0.2-110,0.4-165c0-133,1.5-266,2.4-399
		c1.7-248.5,3.6-497.1,5.5-745.6C342,90.4,331.9,92.7,322.2,96.2 M25.5,109.4c-4.7,2.7-4.6,8.8-4.5,13.5c1.4,108.7,3.1,217.4,5,326
		c3,165.3,5.9,330.7,9,496c-0.5,2.7,2,4.4,2,7c0.6,5.3,4.4,9.5,8.7,12.3c5,2.2,10.4,3.6,15.6,5.5c65.4,22,130.7,44,196.1,65.9
		c2.8,0.9,6.1,2.4,8.9,0.6c3.6-2.1,3.6-6.8,3.8-10.4c0-148.3,0.5-296.6,0.5-444.9c0-136,0.6-272,0.5-408c-0.6-3.4-1.4-7-3.1-10
		c-3.5-2.8-6.5-7.1-11.3-7.6c-72.8-15.1-145.6-30.3-218.4-45.5C34,109.1,29.5,107.4,25.5,109.4 M35.1,955.8
		c3.7,193.2,7,386.5,10.5,579.8c2.7-1.7,5.2-3.8,8.2-4.8c4.8-1.6,10-1.2,14.9,0.1c8.1-5.3,16.2-10.5,24.2-15.9
		c1.6-6.2,1.8-12.7,4.8-18.5c4.2-9.6,12.8-16.6,22.2-20.7c4.2-1.8,8.8-1.8,13.2-2.3c5.6-0.7,11.2-0.4,16.7,0.6
		c8.2,1.3,15.3,6.2,21.5,11.5c7.4,5.9,14,12.8,19.6,20.3c6,8.2,9.1,18,12.2,27.6c2.3,8.9,4.7,18.1,4.1,27.4
		c-1.2,10.7-5.9,20.8-12.7,29c25.6,12.1,51.6,23.3,77.4,34.9c0.2-138.3,0.2-276.6,0.3-415c0.1-59.5-0.1-119,0.4-178.5
		c-1,2.5-2,5.3-4.2,7.1c-2.5,2.1-6,2.6-9,1.8c-68.8-23.2-137.6-46.3-206.4-69.5c-3.3-1.2-7-1.8-9.8-4.1C39.5,964,37,960,35.1,955.8
		 M136.6,1476.3c5.4,0.7,10.7,2,15.5,4.6c19.2,9.1,33.9,26.1,42.8,45.1c6.4,14.7,10.2,31.3,6.2,47.2c1.5-5.7,3.1-11.4,3.1-17.3
		c-0.1-9.8-3.2-19.4-6.8-28.4c-8-18.3-20.4-35.8-38.3-45.6C152.3,1478.1,144.4,1476.6,136.6,1476.3 M120,1481.6
		c-0.5-0.3-1.4-0.9-1.9-1.2c-6.9,2.3-12.3,7.5-16.2,13.4c5.6-5.6,12.9-9.8,20.9-10.4c16.7-1.4,32.4,7.3,44.1,18.6
		c14.7,14.2,24.9,33.5,26.9,53.9c1,10.5-0.7,21.6-6.5,30.6c0.7,0.3,2,0.9,2.7,1.2c1.7-1.6,3.5-3.2,4.5-5.3
		c2.7-5.6,4.7-11.5,5.5-17.6c0.9-12.6-2-25.2-7-36.7c-7.6-17.1-20.1-32.3-36.2-41.9c-9.2-5.4-19.9-9-30.7-7.7
		C123.8,1479.4,121.9,1480.6,120,1481.6 M112.2,1492.2c-7.4,3.9-12.3,11.5-14.2,19.5c3.1-2.1,6.7-3.7,8.9-6.9
		c3.8-5,9.8-7.7,15.6-9.4c6.8-1.4,13.9-0.5,20.4,1.6c22.7,10.2,38.4,33.5,41.1,58c1.1,9.5-2,19-7.2,26.9c1.8,0.8,3.7,1.7,5.5,2.5
		c2.5-3.9,4.3-8.2,5.2-12.7c3.3-16.6-1.8-33.8-10.3-48.1c-8.9-14.7-22.3-27.6-38.9-32.9C129.9,1488.1,120.1,1487.8,112.2,1492.2
		 M122.8,1498.8c-17,10.8-33.7,22.1-50.7,33c13.1,5.6,25.7,12.4,38.6,18.5c20.4,10,40.9,20,61.5,29.4c1.8-1.3,4-2.4,4.9-4.5
		c5.5-10.2,4.8-22.7,0.9-33.3c-5.8-16.6-16.5-32.4-32.7-40.3C138.6,1498,130.3,1496.6,122.8,1498.8 M51.8,1534.9
		c-5.4,3.2-10.5,6.9-15.8,10.2c12.5-1.4,23.2,5.9,34,10.9c100.6,49.9,204.7,92.2,308.7,134.3c98.2,39,195.6,79.9,294.9,116.1
		c5.7-4.8,11.5-9.5,17.2-14.3c-87.9-31.2-176.1-61.7-262.7-96.2c-38.4-15.2-76.5-31.2-114.5-47.4c-35.6-14.9-70.6-31.3-105.7-47.2
		c-40.1-18.6-80-37.7-119.7-57.4c-6.3-3-12.5-6.5-19.1-9C63.6,1532.9,57.1,1531.8,51.8,1534.9 M30.3,1549.3c-7,3-12.1,9.5-14.4,16.7
		c3.6-8.2,12.1-14,21.1-13.6c8.6-0.2,16,4.5,23.4,8.2c21.3,10.7,42.6,21.6,64.1,31.8c39.2,18.9,78.5,37.8,117.9,56.1
		c21.5,9.9,42.8,20.1,64.5,29.4c36.5,16.3,73.8,31,110.7,46.4c22.7,8.7,45.5,17.2,68.3,25.8c16.5,6.4,33.4,12,50.1,17.9
		c44.4,15.5,88.9,31,133.3,46.5c0.7-2,1.4-4,2.3-6c-71.6-26.2-142.3-54.7-212.9-83.2c-120.1-48.4-240.8-95.6-357.8-151.2
		c-15.5-7.5-30.9-15.1-46.4-22.6C47.2,1547.8,38.2,1546.3,30.3,1549.3 M18.6,1566.5c-4.9,10.3-4.1,22.3-1.3,33.1
		c4.3,15.6,12.9,30.2,25.4,40.6c5,4.4,11.3,6.9,17.1,10c119.9,61.6,245.3,111.6,369.6,163.5c40.7,16.8,81.1,34.2,121.7,51.1
		c37.3,15.3,75,29.8,112.5,44.8c2-30.7,4.3-61.4,6.2-92.1c-26.9-9.3-53.6-18.7-80.5-28c-39.8-14.1-80-27.3-119.4-42.5
		c-18.8-7.2-37.7-14-56.4-21.4c-40.5-16.8-81.2-32.9-121-51.1c-40.3-18.5-80.6-37.3-120.6-56.4c-37.2-18.1-74.7-35.5-111.6-54.4
		c-7.5-3.6-14.8-8.6-23.4-8.6C29.2,1554.8,21.9,1559.6,18.6,1566.5 M44.7,1646.7c-0.3,12.8,0.2,25.6,0.3,38.4
		c0.4,8.9-0.4,17.8,0.6,26.6c0.6-2.9,0.3-5.8,0.3-8.7c0-16.3-0.5-32.6-0.6-48.9C45.3,1651.6,45.4,1649.1,44.7,1646.7 M48,1649.4
		c0.3,21.9,0.4,43.8,1,65.7c0.2,9.9,5.2,20.5,14.8,24.3c70.8,31.9,141.6,64,212.4,95.8c-6.2-9.9-4.8-22-4.9-33.2
		c0-15.7,0-31.4,0-47.2c-17.1-7.6-34.3-15.1-51.5-22.6c-20.1-9.2-40.3-18.4-60.4-27.7c-18.9-9.1-37.8-18.1-56.6-27.2
		C84.6,1667.9,66.2,1658.8,48,1649.4 M155.8,1700.3c4.3,2.2,8.9,3.4,13.2,5.6c17.4,8,34.8,15.9,52.2,23.9
		c39.6,17.4,79.3,35,119.3,51.6c41.3,17.5,82.8,34.5,124.3,51.7c39.5,16.4,79.1,32.3,118.8,48.2c18.2,7.5,36.9,14,55.1,21.6
		c1.2,0.5,2.4,0.7,3.7,0.8c-1.9-0.7-3.7-1.6-5.6-2.4c-12-3.9-23.6-9.1-35.4-13.6c-27.5-10.7-54.8-21.8-81.9-33.4
		c-41.1-17.4-82.2-34.6-123.4-51.7c-76.6-31.9-153.3-63.3-228.8-97.8l0.7,0c-2.2-0.7-4.4-1.5-6.5-2.5
		C160.1,1700.8,157.9,1700.1,155.8,1700.3 M274,1755.9c0,19,0,38,0,57c-0.1,7.3,0.6,15,4.9,21.2c3.7,5.4,10.8,7.2,17,6.4
		c5.3-0.7,10.7-2.6,14.6-6.4c-5.1,2-11.2,3.2-16.1,0c-6.1-4.3-7.7-12.2-7.9-19.2c-0.1-17.9-0.6-35.8-0.5-53.8
		C282,1759.4,278,1757.7,274,1755.9 M288.8,1762.4c0,16.9,0.4,33.8,0.5,50.6c0.1,5,0.4,10.3,3,14.8c1.7,3.2,5,5.5,8.6,5.7
		c4.8,0.4,9.1-2.3,13-4.7c8.3-5.4,16.6-10.7,24.9-16.1c0-9.7,0-19.4-0.1-29.1C322,1776.7,305.4,1769.5,288.8,1762.4 M341.4,1814
		c-0.2,6.6-7.7,8.3-11.9,11.7c4.4,1.8,9.3,5.2,14.2,3.1c4-1.9,4.8-6.8,4.6-10.8c-0.2-10,0.6-20,0.8-30c-2.5-1.1-5.1-2.1-7.6-3.2
		C341.3,1794.5,341.5,1804.2,341.4,1814 M676.4,1807.6c6,3.2,11.6,7.5,15.6,13.1c3.3-2.7,6.5-5.5,9.8-8.2c1.6-7.3-1.4-15.5-8-19.3
		C687.9,1797.9,682.2,1802.8,676.4,1807.6 M675.3,1810.2c-0.9,1.8-1.7,3.7-2.4,5.5c5.2,2,10.5,4,16,5.2
		C685.2,1816.4,680.5,1812.8,675.3,1810.2 M692.9,1823.7c-2.1,25-3.5,50-5.4,75.1c2.8-2.7,6.2-4.7,8.6-7.8c2.2-6.8,3.6-13.9,5-20.9
		c3.2-17.9,4.8-36.5,1.1-54.4C699.1,1818.4,695.6,1820.6,692.9,1823.7 M672.6,1818.5c-2.1,30.7-4.3,61.4-6.3,92.1
		c7.2,1.1,14.5-3,18.1-9.1c2.2-25.8,3.7-51.6,5.6-77.5C684.1,1822.7,678.3,1820.7,672.6,1818.5z"/>
	<path class="st0" d="M126.3,232c7.9-2.8,15.9,2.8,20.1,9.2l-1.2-0.7c-2.9-2.7-5.6-5.9-9.6-7.2C132.7,231.9,129.3,233.3,126.3,232z"
		/>
	<path class="st0" d="M128.1,235.9c2-2.1,5.2-1.5,7.6-0.6c5,1.9,8.8,6.3,10.6,11.3c-2.8-2.5-4-6.4-7.4-8.4
		C135.9,235.7,131.8,235.7,128.1,235.9z"/>
	<path class="st0" d="M129.6,238.1c6.2-1.6,12.7,3.2,13.7,9.3c-2-2.8-3.7-6.3-7.1-7.7C134.2,238.5,131.4,239.9,129.6,238.1z"/>
	<path class="st0" d="M145.2,240.6c2.2,1.1,3.1,3.5,3.3,5.8C147.2,244.6,146.1,242.6,145.2,240.6z"/>
	<path class="st0" d="M108.7,245.7c8.1-1.3,16.2-2.6,24.3-3.8c3.3-0.6,6,2.1,7.2,4.8c8.3,18.4,16.5,36.8,24.8,55.2
		c0.8,1.9,1.8,4,0.9,6c-0.8,1.5-2.7,1.5-4.1,1.9c-8,1.1-15.9,2.6-23.9,3.6c-6.5-0.8-7.3-8.5-10-13.2c6,2.2,12,4.7,18,6.9
		c1.4,0.8,3.7-0.2,3.5-2c0.2-4.4,0.1-8.8,0-13.2c0.1-2.8-2.3-4.9-4.7-5.7c-9.3-3.6-18.7-7.2-28-10.9c-3.5-8.1-7.4-16.2-10.8-24.4
		C104.7,248.9,106.1,245.7,108.7,245.7 M108.3,247.3c-2.2,0.7-1.4,3.5-0.7,5.1c3.3,7.4,6.7,14.7,9.9,22.1
		c9.1,3.6,18.3,7.1,27.4,10.6c3.4,1.1,6,4.3,5.9,7.9c0,4.2,0.1,8.5-0.1,12.8c-0.1,2-2.4,3.4-4.2,2.7c-5.6-1.9-11-4.3-16.5-6.3
		c1.4,2.8,2.2,6.1,4.4,8.5c1.7,2,4.5,1.3,6.8,0.9c7.6-1.4,15.2-2.2,22.8-3.8c2-1,1.1-3.6,0.4-5.2c-8.3-18.4-16.6-36.8-24.8-55.2
		c-1-2.6-3.5-5.1-6.5-4.2C124.7,244.6,116.4,245.7,108.3,247.3z"/>
	<path class="st0" d="M102.5,273.4c4.3-2.7,8.7,2.8,8.8,6.9c-2.3-1.4-2.3-5.2-5.3-5.7c-2.3-1-3.7,1.8-3.8,3.6
		c-0.4,3.9,0.5,9.1,4.8,10.4c2.3,0.1,2.6-2.4,3.5-3.9c2,2-0.3,5.1-2.4,6C100.9,289.1,98.5,279,102.5,273.4z"/>
	<path class="st0" d="M117.4,277.4c1.2,0.6,1.9,1.6,2.1,2.9c1.4,5.4,2.7,10.7,4.2,16.1c-0.4-0.1-1.2-0.4-1.6-0.5
		c-0.4-1.9-0.9-3.7-1.3-5.6c-1.8-0.6-3.5-1.3-5.3-1.9c-0.6,1.1-0.7,5.4-2.7,3.8C114,287.2,115.8,282.3,117.4,277.4 M118.1,279.9
		c-0.7,2.3-1.4,4.5-2.1,6.8c1.4,0.5,2.7,1,4.1,1.6C119.4,285.5,118.8,282.7,118.1,279.9z"/>
	<path class="st0" d="M125.4,280.9c2.3,0.9,4.7,1.5,6.9,2.8c2.8,1.9,3.2,6.2,1,8.7c1.4,2.8,1.4,5.9,1.3,9c-2.4-2.2-0.8-5.9-2.6-8.4
		c-1.6-1-3.3-1.5-5-2.2c0,2.5,0,5-0.1,7.4c-0.3-0.4-1-1.1-1.3-1.5C125.3,291.4,125.6,286.1,125.4,280.9 M127,283.1
		c0,1.9,0,3.9,0,5.8c1.3,0.5,2.7,1,4.1,1.4c2.1,1.1,2.4-1.9,2-3.3C132.4,284.4,129.1,284.2,127,283.1z"/>
	<path class="st0" d="M137.5,285.5c3.1,1.3,6.9,2.2,8.6,5.5c1.7,3.5,2,8,0.3,11.5c-2.3,3.2-6.2,0.1-8.9-0.6
		C137.5,296.4,137.5,290.9,137.5,285.5 M139.2,287.8c-0.1,4.3,0,8.6-0.1,12.9c1.8,0.4,4.1,2.2,5.8,0.6
		C147.6,296.2,145.4,288.7,139.2,287.8z"/>
	<path class="st0" d="M64.1,426c2.6-1.6,5.3-3,8-4.5c1.5,0.6,3,1.2,4.5,1.9c-0.2,11.4,0.1,22.9-0.1,34.3c-0.3,2.9-3.8,0-5.5-0.1
		c-0.1-9.6-0.1-19.1,0-28.6c-1.3,0.5-2.5,1.7-4,1.5C65.9,429,65.1,427.5,64.1,426z"/>
	<path class="st0" d="M140.8,456c1.2-2.4,3.4-4.8,6.3-5c8.9-0.3,16.4,10.9,11.7,18.8c-3,4.2-7.2,7.4-10.8,11
		c4.2,1.9,8.7,3.3,12.9,5.1c-0.2,1.8-0.3,3.6-0.7,5.4c-6.5-2.5-13-5-19.5-7.4c0-1.4-0.1-2.7,0-4.1c4-4.7,9.1-8.3,13.1-13.1
		c3.1-3.8-0.5-9.4-4.8-10.2c-2,0.3-2.8,2.4-4.1,3.7C143.5,458.9,141.5,457.9,140.8,456z"/>
	<path class="st0" d="M221.1,485c1.9-1.8,4.1-3.8,6.9-3.6c8.1,0.4,14.1,9.5,11.7,17.2c-0.6,0.9-1.2,1.8-1.9,2.7
		c2.6,3.5,3.8,8,2.6,12.3c-0.8,3.6-4.8,5.8-8.3,4.7c-4.8-0.8-8.3-4.6-10.6-8.6c-1.7-2.3,2.1-3,3.5-3.9c2,2.9,3.9,7,8,7
		c2.6-0.4,2.3-3.7,2.2-5.7c-0.4-3.5-3.9-5-6.7-6.3c0.1-1.5,0.1-2.9,0.3-4.4c1.8-1.1,4.8,1.5,6-0.9c1.5-3.8-1.6-8.3-5.6-8.5
		c-1.8-0.2-2.8,2.2-4.6,2C223.1,487.7,222.1,486.3,221.1,485z"/>
	<path class="st0" d="M73.2,513.8c1.6,0.5,3.3,1.1,4.9,1.6c0,8.4,0,16.8,0,25.2c1.1,0.6,2.6,0.8,3.5,1.8c0.2,1.7-0.1,3.4-0.3,5.1
		c-0.8-0.2-2.5-0.7-3.3-1c0,1.6,0,3.2,0.1,4.9c-1.8-0.4-3.6-0.8-5.3-1.4c0-1.9,0-3.7,0-5.6c-4.4-1.7-8.9-3.3-13.3-5.1
		c0-1.4,0.1-2.8,0.1-4.2C64.2,528,68.7,520.9,73.2,513.8 M66.1,536c2.2,0.8,4.3,1.7,6.5,2.5c0-4.2,0-8.5,0-12.7
		C70.5,529.2,68.3,532.6,66.1,536z"/>
	<path class="st0" d="M141.7,541.1c0.3-0.2,0.8-0.8,1.1-1c5.7,2,11.3,4.4,17.1,6.4c0.1,1.9,0.3,3.8-0.7,5.5c-4-1.6-8-3.1-12.1-4.6
		c0,2.1,0,4.1-0.1,6.2c11,0.2,16.4,14.3,11.6,23.1c-0.8,1.8-2.8,2.5-4.5,2.9c-6.2,0.1-11.4-4.7-13.6-10.1c1.3-0.8,2.6-1.5,3.8-2.3
		c2.1,2.5,3.8,6.4,7.5,6.8c1.9,0.4,2.4-1.7,2.8-3.2c0.9-4.8-0.9-11.2-6.5-12.1c-0.7,0.8-1.4,1.5-2.2,2.3c-1.5-0.5-3.5-0.7-4.4-2.1
		C141.7,553,141.7,547,141.7,541.1z"/>
	<path class="st0" d="M221.9,589.9c2.6-5.7,6.4-10.7,9.3-16.2c2,0.5,3.9,1.2,5.7,2.2c-2.2,3.7-4.4,7.3-6.5,11
		c3.1,1.7,6.4,3.5,8.2,6.7c2.4,3.9,3.2,8.9,1.3,13.1c-1.4,2.8-4.7,4-7.7,3.3C223.7,608,218.4,597.9,221.9,589.9 M227.3,593.2
		c-2.7,4.4,1.1,11.8,6.6,11C237.9,600.3,232.8,590.6,227.3,593.2z"/>
	<path class="st0" d="M60.5,606.2c-0.1-1.6-1-4.4,0.7-5.3c6.7,2,13.2,4.9,19.8,7.3c-0.1,1.7,0.2,3.5-0.5,5.2
		c-3.3,7.7-6.7,15.3-9.9,23.1c-0.6,1.1-0.8,2.4-1.8,3.2c-1.9-0.3-3.6-1.1-5.3-1.7c3.3-8.9,7.5-17.5,11.2-26.4
		C69.9,609.8,65.1,608.2,60.5,606.2z"/>
	<path class="st0" d="M141.8,638.8c0.8-3.2,4.2-5.2,7.4-4.4c8.6,1.4,14.9,13,8.8,20.2c2.4,3.5,4,7.8,2.8,12.1
		c-0.6,3-3.6,5.3-6.7,4.9c-7.7-0.6-14.1-8-13.5-15.7c0.2-2.5,1.7-4.4,3.3-6.2C141.8,646.5,140.3,642.5,141.8,638.8 M147.4,640.2
		c-2.6,4.6,1.9,9.6,6.6,9.7C156.7,645.7,152.4,638.8,147.4,640.2 M147.2,655.1c-2.6,3.2-0.4,8.2,3,9.8c1.4,0.7,3.7,1.7,4.8-0.1
		C156.8,660.2,152.2,653.3,147.2,655.1z"/>
	<path class="st0" d="M223.8,665.9c2.9-2.1,6.9-1.3,9.7,0.6c6.7,3.7,9.5,13,5.7,19.7c-2.8,5.1-5.9,10.2-9,15.1
		c-1.7-0.8-3.5-1.5-5.2-2.2c1.9-3.9,4.3-7.5,6.5-11.2c-3.8-1.8-7.5-4.2-9.1-8.2C220.3,675.4,219.9,669.2,223.8,665.9 M227.1,671.3
		c-1.8,3.7,0.2,9,4.1,10.6c1.2,0.5,3.1,0.6,3.7-0.9c1-3.5-0.2-7.6-3.3-9.6C230.4,670.6,228.2,669.7,227.1,671.3z"/>
	<path class="st0" d="M61.2,700.7c2.1-1.1,4.3-1.6,6.6-2c0.9,2.4,1.9,4.8,3,7.2c1-1.6,1.9-3.2,3.1-4.6c2.5,1.2,4,3.7,6,5.6
		c-1.1,1.8-2.2,3.5-3.3,5.3c2.2,0.9,4.4,1.7,6.7,2.6c-0.1,2.5-0.1,5-0.1,7.6c-2.1-0.3-4.1-1-6-1.8c1,2.4,2,4.7,2.6,7.2
		c-2,0.5-4,1.1-6,1.7c-1.3-2.4-2.3-4.8-3.3-7.3c-1.1,1.6-2.2,3.3-3.4,4.9c-2-1.9-3.9-3.9-5.8-6c1.1-1.8,2.3-3.5,3.4-5.3
		c-2.2-0.8-4.3-1.6-6.5-2.3c-0.2-2.6-0.2-5.2-0.2-7.8c2.1,0.4,4.2,1,6.2,1.8C63.2,705.3,62.2,703,61.2,700.7 M64.6,701.7
		c1,2.9,2.4,5.6,3.4,8.5c-1.8,2.7-5.3-1-7.7-1.1c0.1,0.6,0.4,1.9,0.5,2.5c2.5,1.1,5.1,2,7.6,3.2c-1.2,2-2.5,4.1-3.8,6.1
		c0.7,0.7,1.4,1.5,2.1,2.3c1.4-1.6,2-4.6,4.2-5.2c2.2,2.2,2.7,5.8,4.2,8.5c0.3-0.1,1-0.4,1.4-0.5c-1.1-2.7-2.4-5.3-3.3-8
		c1.9-2.3,5.2,0.8,7.6,1.1c-0.1-0.6-0.2-1.9-0.2-2.5c-2.6-0.9-5.3-1.8-7.7-3.3c1.2-2,2.5-4,3.7-6c-0.5-0.6-1.6-1.7-2.1-2.3
		c-1.4,1.7-1.9,4.9-4.4,5.1C67.6,707.8,68.3,702.7,64.6,701.7z"/>
	<path class="st0" d="M144.5,726.3c7.8-2.5,15.7,5.2,16.1,12.8c0,5.8,0.2,11.7-0.1,17.5c-0.1,3.5-3,6.4-6.5,6.4
		c-6.2-0.1-11.3-5.4-12.9-11.1c-0.5-6-0.1-12-0.3-18C140.7,731,141.6,727.7,144.5,726.3 M146.8,732.4c-0.9,3.4-0.2,7.1-0.4,10.6
		c0.2,4.3-1.1,9.8,2.9,12.9c1.4,1.3,4.9,2.4,5.6-0.1c0.7-5.6,0.2-11.2,0.3-16.8c0.1-2.9-1.6-5.6-4.2-6.8
		C149.7,731.6,147.4,730.7,146.8,732.4z"/>
	<path class="st0" d="M225.7,764.7c0.4-1.7,0.6-3.4,1.4-5c2.1,0.4,4.2,1,6,2.2c-0.2,2-0.7,3.9-0.9,5.9c0.8-1.7,1.2-3.6,1.9-5.3
		c2.2,0,4.1,1.2,6.1,1.9c-0.3,1.8-0.7,3.6-1,5.5c1,0.4,2,0.8,3,1.2c-0.4,2.1-0.8,4.1-1.2,6.2c-0.8-0.1-2.3-0.3-3.1-0.4
		c-0.1,0.3-0.4,1-0.6,1.3c1,0.3,2,0.7,3,1c-0.3,2.3-0.5,4.8-1.8,6.8c-0.6-0.3-1.7-0.8-2.3-1.1c-0.5,1.8-1.1,3.6-1.7,5.4
		c-1.9-0.8-3.9-1.6-5.9-2.3c0.3-2,0.8-4,1-6.1c-0.8,1.7-1.3,3.5-1.8,5.3c-2.2-0.4-4.4-1.1-6.4-2.1c0.4-1.8,0.9-3.5,1.3-5.3
		c-0.7-0.2-2.2-0.7-2.9-0.9c0.3-2.2,0.7-4.4,1.2-6.6c0.9,0.2,2.6,0.6,3.5,0.8c0-1.9-1.9-2.2-3.2-3c0.4-2.1,0.9-4.2,1.5-6.3
		C223.5,764,225,764.5,225.7,764.7 M227.4,768c-1.3-0.3-2.5-0.5-3.8-0.2c1.2,0.8,2.5,1.5,3.8,2.2c-0.4,2.1-0.8,4.1-1.3,6.2
		c-0.9-0.1-2.7-0.4-3.6-0.5c0.5,1.3,1.5,2.1,3,2.4c-0.2,2.2-1.2,4.4-0.3,6.5c0.8-2,1.5-4,2.4-5.9c1.7,0.7,3.4,1.4,5.1,2.2
		c-0.4,2.1-1.2,4.3-0.6,6.5c1-1.7,1.5-3.7,2-5.6c0.9,0.1,2.6,0.3,3.5,0.4c-0.6-1.3-1.6-2.1-3-2.5c0.3-2.1,0.8-4.3,1.3-6.4
		c0.9,0.1,2.7,0.4,3.6,0.5c-0.7-1.3-2.1-2-3.3-2.8c0.2-1.9,1.6-4.1,0.2-5.9c-0.7,1.9-1.3,3.8-2.1,5.7c-1.8-0.7-3.6-1.5-5.3-2.3
		c0.3-2,1.6-4.2,0.3-6.2C228.6,764.2,228,766.1,227.4,768z"/>
	<path class="st0" d="M227.3,777.1c0.6-2.1,0.6-4.5,1.8-6.4c1.9,0.3,3.7,1.2,5.4,2.1c-0.5,2-0.9,4.1-1.7,6.1
		C230.9,779,229.1,777.8,227.3,777.1z"/>
	<path class="st0" d="M71.5,880.5c1.5-0.3,3.1,0,4.6,0.4c50,15.1,99.9,30,149.9,45.1c5.9,1.7,9.7,8.8,7.5,14.5
		c-1.2,3.3-5.3,4.9-8.5,3.5C175,929,125,914,75,899c-5.2-1.4-8.8-6.8-8.5-12.1C66.7,884,68.5,881.1,71.5,880.5 M71.3,883.2
		c-4.9,3.7-1,11.9,4.2,13.2c50,15.1,100,30.1,150,45.1c1.9,0.8,4.6,0.4,5.4-1.7c1.9-4.6-1.4-10.3-6.2-11.5
		c-49.7-15-99.5-29.9-149.2-44.9C74.2,883.1,72.7,882.6,71.3,883.2z"/>
	<path class="st0" d="M124.4,1716.4c4.6-2,9.7-0.2,13.4,2.9c5.5,4.7,10.1,10.8,11.7,18c1.2,4.6,0.4,9.7-2.7,13.5
		c-2.1,3.2-6.3,4.3-9.9,3.7c-4.3-0.6-7.8-3.7-10.7-6.7c-4.9-5-8.6-11.7-8.9-18.8C117.4,1724,119.8,1718.6,124.4,1716.4
		 M128.5,1726.4c-1.8,0.7-2.6,2.8-2.7,4.6c-0.2,5.7,3.3,11.3,8.2,14c2.1,1.2,5.4,1,6.5-1.5c2-4.9-0.5-10.4-4-14
		C134.5,1727.5,131.5,1725.4,128.5,1726.4z"/>
	<path class="st0" d="M174.6,1737.7c4.4-1.3,9,0.5,12.4,3.3c6.2,5.3,11.4,12.6,12.2,21c0.6,4.8-1.6,9.7-5.2,12.8
		c-3.5,2.4-8.3,2.2-12,0.3c-4.6-2.6-8.2-6.6-11.2-10.9c-3.5-5.6-5.9-12.6-3.6-19.1C168.7,1742,170.9,1738.6,174.6,1737.7
		 M178,1748.1c-3,0.7-3.7,4.4-3.3,7c1,5.6,4.8,11.4,10.7,12.6c4.2,0.7,5.8-4.5,4.8-7.7C189,1754.2,184.4,1747.7,178,1748.1z"/>
</g>
<g id="_x23_f1f1f0ff">
	<path class="st1" d="M353.9,61.1c7,3.3,11.2,10.8,12.4,18.2c-0.1,1.3,1.2,3.6-0.8,3.9c-1.1-2.8-0.8-6-2-8.7c-1.2-2.5-2.2-5-3.8-7.2
		C357.9,65.1,355.7,63.3,353.9,61.1z"/>
	<path class="st1" d="M118.1,279.9c0.7,2.8,1.4,5.6,2,8.4c-1.4-0.5-2.7-1-4.1-1.6C116.7,284.5,117.4,282.2,118.1,279.9z"/>
	<path class="st1" d="M127,283.1c2.1,1.1,5.3,1.3,6,3.9c0.5,1.3,0.1,4.4-2,3.3c-1.4-0.4-2.7-0.9-4.1-1.4
		C127,287,127,285.1,127,283.1z"/>
	<path class="st1" d="M64.6,701.7c3.7,1,3,6.1,5.4,8.5c2.5-0.2,3-3.4,4.4-5.1c0.5,0.6,1.6,1.7,2.1,2.3c-1.2,2-2.5,4-3.7,6
		c2.4,1.5,5.1,2.4,7.7,3.3c0.1,0.6,0.2,1.9,0.2,2.5c-2.4-0.3-5.7-3.4-7.6-1.1c0.9,2.7,2.2,5.3,3.3,8c-0.3,0.1-1,0.4-1.4,0.5
		c-1.5-2.8-2-6.3-4.2-8.5c-2.2,0.5-2.8,3.5-4.2,5.2c-0.7-0.8-1.4-1.5-2.1-2.3c1.3-2,2.6-4.1,3.8-6.1c-2.4-1.3-5.1-2.1-7.6-3.2
		c-0.1-0.6-0.4-1.9-0.5-2.5c2.5,0.1,5.9,3.8,7.7,1.1C67,707.2,65.6,704.5,64.6,701.7z"/>
	<path class="st1" d="M227.4,768c0.6-1.9,1.2-3.8,1.9-5.6c1.3,2,0,4.2-0.3,6.2c1.7,0.9,3.5,1.6,5.3,2.3c0.7-1.9,1.3-3.8,2.1-5.7
		c1.4,1.8,0,3.9-0.2,5.9c1.2,0.8,2.6,1.5,3.3,2.8c-0.9-0.1-2.7-0.4-3.6-0.5c-0.5,2.1-0.9,4.2-1.3,6.4c1.4,0.4,2.4,1.2,3,2.5
		c-0.9-0.1-2.6-0.3-3.5-0.4c-0.5,1.9-1,3.8-2,5.6c-0.7-2.2,0.2-4.4,0.6-6.5c-1.7-0.7-3.4-1.4-5.1-2.2c-0.9,1.9-1.6,4-2.4,5.9
		c-1-2.1,0.1-4.4,0.3-6.5c-1.5-0.3-2.5-1.1-3-2.4c0.9,0.1,2.7,0.4,3.6,0.5c0.4-2.1,0.9-4.1,1.3-6.2c-1.3-0.7-2.6-1.4-3.8-2.2
		C224.8,767.5,226.1,767.7,227.4,768 M227.3,777.1c1.8,0.7,3.6,1.9,5.6,1.8c0.8-2,1.1-4.1,1.7-6.1c-1.7-0.9-3.5-1.8-5.4-2.1
		C228,772.6,227.9,775,227.3,777.1z"/>
</g>
</svg>
