<?xml version="1.0" encoding="utf-8"?>
<!-- Generator: Adobe Illustrator 21.1.0, SVG Export Plug-In . SVG Version: 6.00 Build 0)  -->
<svg version="1.1" id="Laag_1" xmlns="http://www.w3.org/2000/svg" xmlns:xlink="http://www.w3.org/1999/xlink" x="0px" y="0px"
	 viewBox="0 0 1377 406" style="enable-background:new 0 0 1377 406;" xml:space="preserve">
<g id="_x23_000000ff">
	<path d="M1068.3,6.3c26.5-0.5,53.1-0.1,79.7-0.2c75.7,0.1,151.4-0.2,227.1,0.1c0.8,9.6,0.1,19.2,0.3,28.8c0,92,0,184,0,276
		c0.2,1.5-0.6,2.8-1.9,3.4c-49.6,27.7-99.2,55.4-148.8,83.2c-0.9,0.5-1.8,0.9-2.7,1.2c-3.8-1.2-7-3.5-10.4-5.4
		c-47-26.3-94.1-52.6-141.1-78.9c-1.9-0.7-1.8-2.9-1.9-4.5c0-17,0.3-34-0.3-51C1068.3,174.8,1068.2,90.5,1068.3,6.3 M1089.4,29.4
		c0,88.2,0,176.4-0.1,264.6c-0.3,1.6,1,2.8,2.3,3.4c40,22.3,80,44.7,119.9,67c3.4,1.8,6.6,4.2,10.4,5.4c0.9-0.3,1.8-0.7,2.7-1.1
		c37.4-21,74.8-41.9,112.3-62.8c5.7-3.5,11.9-6.1,17.2-10c0.6-7.9,0-15.9,0.2-23.8c0.2-71-0.2-142-0.2-213
		c-0.2-9.9,0.4-19.8-0.3-29.7C1265.7,29.3,1177.5,29.2,1089.4,29.4z"/>
	<path d="M0,33.9c12.3-1.2,24.7-0.2,37-0.6c2.3,0.3,5.5-0.7,7.1,1.5c1,4.3,0.3,8.8,0.4,13.2c0,73.3,0,146.7,0,220
		c-0.2,1.6,0.1,4.2-2,4.6c-4.8,0.9-9.8,0.3-14.7,0.4c-9.3-0.3-18.7,0.8-28-0.8V33.9z"/>
	<path d="M81.4,33.4c23.5-0.2,47,0,70.6-0.1c13.7-0.2,27.4,0.2,40.9,2.8c24.3,4.4,47.8,16,64.2,34.7c18.5,20.7,26.7,48.7,27.9,76
		c0.8,27.1-4.8,55.2-20.1,77.9c-12.8,19.3-32.6,33.4-54.5,40.6c-19.7,6.8-40.7,7.8-61.4,7.6c-20.7,0-41.4,0-62.1,0
		c-1.8,0-3.6-0.2-5.3-0.7c-0.5-3.4-0.3-6.9-0.3-10.4C81.4,185.8,81.3,109.6,81.4,33.4 M125.6,71.6c-0.8,3.4-0.2,6.9-0.3,10.4
		c0,49.7,0.1,99.4,0,149c0,1.1,0.1,2.3,0.3,3.4c12.8,0.6,25.7,0,38.5,0.2c20.7-0.4,42.4-7.3,56.4-23.3c15-16.6,19.5-39.8,19.3-61.5
		c-0.6-9.5-1.5-19.1-4.4-28.2C230.6,106,220.4,91.4,206,83c-15.4-9.6-34.1-12.2-52-11.6C144.6,71.6,135.1,70.9,125.6,71.6z"/>
	<path d="M375.4,34.3c2.9-1.5,6.4-0.9,9.6-1c10.8,0.3,21.6-0.4,32.4,0.3c1.2,3.3,0.6,6.9,0.8,10.4c-0.1,54.3,0,108.7,0,163
		c-0.1,7.3,0,15,3,21.8c1.6,3.5,4.9,6,8.8,6.5c7.6,1.3,15.4,0.4,23.1,0.6c10.8,0.4,21.6-1.3,32.4-0.3c1.3,4.7,0.5,9.6,0.7,14.4
		c-0.2,7.6,0.4,15.2-0.3,22.8c-3.1,1.2-6.5,0.8-9.8,0.9c-9-0.3-18,0.4-27,0.4c-15.4,0.9-31.4,1.7-46.1-3.9
		c-11.3-4.1-20-14-23.6-25.4c-3-7.9-3.5-16.4-3.9-24.8C375.5,158.1,375.2,96.2,375.4,34.3z"/>
	<path d="M846.4,33.4c12.5-0.2,25.1,0.1,37.6-0.1c1.7,0.2,4.2-0.4,5.2,1.4c0.8,3.4,0.3,6.9,0.4,10.3c0,32.3,0,64.7,0,97
		c0.2,6.3-0.4,12.6,0.3,18.8c6.9,0.1,13.8,0.6,20.7-0.3c6-7.5,10.8-15.8,16.4-23.7c7.1-10.2,14-20.5,21.1-30.8
		c1.8-2.4,3.4-6.1,7-5.7c14.2,0,28.5-0.1,42.8,0c0.7,2.1-1.1,3.7-2,5.3c-16.3,23.1-32.6,46.1-48.9,69.2c-1.6,1.8-1.5,4.3,0,6.1
		c17.6,27.4,35.3,54.7,52.9,82.1c1.8,2.8,3.9,5.5,5.3,8.6c-1.3,1.5-3.3,1.1-5,1.2c-12.7-0.1-25.4-0.1-38.1,0c-2.4,0-5.3,0-6.5-2.5
		c-13.2-21.5-26.2-43.2-39.2-64.8c-1.5-2.5-2.8-5.1-4.7-7.4c-1.7-1-3.7-0.6-5.5-0.8c-5.4,0.1-10.8-0.3-16.1,0.3
		c-0.5,4-0.3,8-0.3,12.1c0,19.3,0,38.7,0,58c0.1,1.9-0.2,4.8-2.8,4.8c-8.6,0.5-17.3,0-25.9,0.2c-4.8-0.1-9.7,0.6-14.4-0.6
		c-0.5-3.4-0.3-6.9-0.3-10.4C846.4,185.8,846.3,109.6,846.4,33.4z"/>
	<path d="M562.4,97.5c16.4-1.8,33.3-0.5,48.7,5.5c18.6,6.7,35,19.5,45.7,36.2c7.3,11.7,12,25.1,13.2,38.8c0.2,7,0.4,14-0.3,21
		c-2.8,20.4-12.6,39.9-28.1,53.6c-30.4,27.2-77.9,31.8-113.5,12.3c-16.9-8.7-30.5-23.3-38.5-40.5c-7.1-15.6-9.8-33.4-7.2-50.4
		c2.3-17.6,10.4-34.3,22.3-47.4C519.7,110.4,540.7,100.4,562.4,97.5 M567.3,134.4c-16.2,2.6-30.5,13.9-37.1,28.9
		c-4.7,10.2-5.4,21.7-4.2,32.7c2,13.8,9.4,27,21.1,35c11.3,8,26,10.6,39.5,7.8c11.3-2.5,22-8.8,29-18.2
		c10.7-14.2,13.5-33.5,8.5-50.4c-3.1-11.6-10.8-21.8-20.8-28.4C592.7,134.9,579.7,132.1,567.3,134.4z"/>
	<path d="M745.4,98.7c17-3.2,34.9-2.6,51.4,2.6c12.9,4.3,25.5,10.8,34.8,20.9c-0.8,2.2-2.1,4.2-3.4,6.1c-4.4,6.6-8.6,13.3-12.9,20
		c-0.8,0.9-1.3,2.3-2.5,2.7c-1.1-0.6-2.1-1.3-3-2c-12.1-10.2-28-16.2-43.9-15.5c-14.3,0.3-28.6,6.6-37.6,17.8
		c-17.8,22-15.4,58.2,6.6,76.5c13.1,11.3,31.7,13.9,48.3,10.4c10.6-2.5,20.6-7.3,29.3-13.8c2.5-1.9,4.8-4,7.4-5.7
		c3.4,4.1,5.4,9.2,8.1,13.8c2.6,5.4,6.2,10.4,8.4,16c-11.4,12-26.8,19.7-42.6,24.3c-25.3,6.9-53.5,4.5-76.6-8.3
		c-27.9-14.8-45.1-46.4-44.4-77.7c-0.6-19.5,6.1-38.9,17.5-54.6C703.7,114.8,723.8,102.8,745.4,98.7z"/>
	<path d="M1251.7,116.4c11.4-0.6,23-1.5,34.4,0.4c9.7,1.5,19.2,5.2,26.8,11.3c8.4,6.7,13.8,16.7,15.7,27.2c2.1,10.7,1.2,21.7-1,32.3
		c-3.7,19.4-5.6,39.8-15.8,57.2c-6.5,11.6-17.1,20.8-29.5,25.5c-12.5,4.9-26,6.3-39.3,6c-12.4,0.2-24.7-0.8-37-2.2
		c-3.4-0.6-7.4-0.7-10.1-3.1c-3.2-3.9-1.1-9.1-0.4-13.5c2.8-16.5,6.2-33,8.5-49.6c-9.6-0.6-19.9-1.3-28.7,3.3
		c-8,4.3-12.2,13.1-14.4,21.6c-2.6,10.6-3.9,21.4-6,32c-0.5,2.7-1.8,5.9-4.9,6.2c-5.6,0.7-11.3,0.2-16.9,0.3
		c-6.3-0.2-12.6,0.4-18.9-0.3c0.8-7.8,2.7-15.3,3.8-23c2.4-16,6.1-32.4,14.9-46.2c6.9-10.9,17.5-19.2,29.6-23.5
		c15.5-5.8,32.3-5.7,48.7-5.3c10.9,0.8,21.9,0.9,32.6,3.3c3.8,0.7,6.1,4.8,5.2,8.5c-3.1,19-7,37.9-9.8,56.9c9.9,0.3,20.9,1.4,29.8-4
		c8.7-5.5,12.3-15.8,14.4-25.4c2.1-10.7,3.9-21.5,5.8-32.3c0.9-7.1,1.6-14.8-1.9-21.3c-2.9-5.5-9.4-7.7-15.2-8
		c-11.7-0.6-23.3,0.5-35,0.2c-7.6-0.2-15.2,1-22.8,0.1c0.9-7.7,2.7-15.2,3.9-22.9c0.6-4,3-8,7.2-8.8
		C1234,117.4,1242.9,117.2,1251.7,116.4z"/>
	<path d="M1172.1,121.8c8.4-0.7,16.7-2,25.1-2.5c2.8-0.3,6.1,1.7,5.8,4.8c0,5.3-1.5,10.4-2.3,15.5c-0.8,3.9-1.1,7.9-2.3,11.8
		c-13.2,0.8-26.4,0.6-39.6,0.8c0.1-5.9,2.1-11.6,3-17.4c0.8-3.4,1-7.1,2.9-10.1C1166.3,122.2,1169.4,122.1,1172.1,121.8z"/>
</g>
</svg>
