<?xml version="1.0" encoding="utf-8"?>
<!-- Generator: Adobe Illustrator 21.1.0, SVG Export Plug-In . SVG Version: 6.00 Build 0)  -->
<svg version="1.1" id="Laag_1" xmlns="http://www.w3.org/2000/svg" xmlns:xlink="http://www.w3.org/1999/xlink" x="0px" y="0px"
	 viewBox="0 0 540 500" style="enable-background:new 0 0 540 500;" xml:space="preserve">
<g id="_x23_ffffffff">
</g>
<g id="_x23_000000ff">
	<path d="M443.1,18.1c3.8-4.4,11.3-4.8,15.5-0.7c3.1,2.5,3.7,6.8,3.7,10.6c0,37.9,0,75.9,0,113.8c18.3,0,36.5,0,54.8,0
		c2.2,0.1,4.9-0.1,6.6,1.7c2,1.9,1.9,4.9,2,7.5c-0.1,19,0,38.1,0,57.1c-0.1,2.3-0.1,5-1.9,6.7c-1.7,1.8-4.4,1.7-6.7,1.8
		c-18.3,0-36.5-0.1-54.8,0c0,14.3,0,28.6,0,42.9c18.9,0.2,37.8,0,56.7,0.1c2.7-0.2,5.8,1.1,6.6,3.9c0.9,3.5,0.5,7.1,0.5,10.6
		c0,30,0,60.1,0,90.1c-0.1,2.4,0,5.3-2,7.1c-1.9,1.8-4.6,1.8-7.1,1.9c-18.3,0-36.5,0-54.8,0c0.1,34.7,0,69.4,0,104
		c0,3.5-0.6,7.4-3.5,9.8c-3.8,3.8-10.4,4.2-14.4,0.7c-3-2.2-4.2-5.9-4.1-9.5c0-148.4,0-296.7,0-445.1
		C440.4,28,439.3,22.1,443.1,18.1 M462.3,153.8c0,16.9,0,33.8,0,50.6c17,0.1,34.1,0.1,51.2,0c0-16.9,0.1-33.8,0-50.7
		C496.4,153.8,479.3,153.7,462.3,153.8 M462.3,272.3c0,29.5,0,59,0,88.5c17,0,34.1,0,51.1,0c0.1-29.5,0.1-59,0-88.5
		C496.4,272.3,479.3,272.2,462.3,272.3z"/>
	<path d="M255.7,96.6c4.6-1.5,9.5-1.1,14.3-1.1c35,0,70,0,105,0c7.6-0.1,15.1,4,19,10.5c2.6,4.1,3.4,9.2,3.3,14
		c-0.1,94.3,0,188.7,0,283c0.3,11.6-9.7,21.9-21.3,22.2c-38,0.1-76.1,0.1-114.1,0c-11.3,0-21.4-9.9-21.4-21.2
		c-0.2-60.8,0.1-121.7-0.2-182.5c-63.5-2.8-127-5.8-190.4-8.7c-9.9-0.5-19.9-4.6-26.2-12.4c-8.7-10.1-10.9-25.6-4.9-37.6
		c3.8-8.2,11.2-14.3,19.5-17.4c5.3-2,11.1-2,16.7-2.3c61.8-2.8,123.6-5.7,185.4-8.5c0.4-7-0.3-14.1,0.4-21
		C242.1,105.7,248.2,99,255.7,96.6 M262.5,117.5c0,5.3,0,10.6,0,15.9c17.2-0.8,34.3-1.9,51.5-2.6c18.1-0.6,35.9,10.3,43.5,26.8
		c6.7,14,5.9,31.4-2.4,44.6c-5.9,10.2-16.1,17.6-27.3,20.8c-6.5,1.9-13.2,1.2-19.9,1c-15.2-0.6-30.3-1.3-45.5-1.9
		c0,60.4,0,120.8,0,181.1c37.6,0.2,75.2,0.1,112.8,0.1c0-95.2,0.1-190.5,0-285.7C337.7,117.5,300.1,117.5,262.5,117.5 M289.4,154.4
		c-78.2,3.4-156.3,7.4-234.5,10.9c-4.9,0.2-10.7,0.4-14,4.6c-5.5,5.9-3.1,16.6,4.4,19.7c5.6,2,11.8,1.2,17.7,1.7
		c84,3.8,168,7.8,252,11.4c8,0.6,16-3.5,20.8-9.9c6.1-8,6.4-19.9,0.7-28.3c-4.4-6.8-12.3-11.3-20.5-11.1
		C307.1,153.5,298.3,154.1,289.4,154.4z"/>
	<path d="M314.4,283.7c8.4-1.7,17.5,1.3,23.3,7.6c7.3,7.6,8.9,20,3.7,29.2c-1,2-2.5,4-2.5,6.5c-0.3,10.7,0.3,21.3-0.2,32
		c-0.7,9.6-9.4,17.6-18.9,17.8c-7.4,0.3-14.8-3.8-18.2-10.4c-2.1-3.8-2.5-8.1-2.5-12.4c-0.1-8.7,0.1-17.4,0-26
		c0.2-3.6-2-6.6-3.3-9.8c-2-4.4-2.4-9.3-1.6-14C296,294,304.4,285.5,314.4,283.7 M316.5,295.6c-8.8,1.6-13.2,13.4-7.3,20.2
		c4,4.1,2.7,10,2.8,15.2c0.1,8.7-0.2,17.3,0.1,26c-0.1,4.7,5.1,8.4,9.5,6.6c3.2-1,4.9-4.4,4.7-7.6c0.1-11-0.1-22.1,0-33.1
		c-0.2-5.4,5.8-8.6,5.5-14C332.4,301,324.4,293.7,316.5,295.6z"/>
</g>
</svg>
